# Blender v3.4.0 OBJ File: 'model4VIET_02.blend'
# www.blender.org
mtllib BOX.mtl
o obudowa.002_Cube.008
v 2.100000 12.677671 -3.064730
v 2.100000 -0.000041 -3.064730
v 1.499951 12.010969 -0.653802
v 1.600000 -0.000041 -1.064407
v -2.100000 12.677671 -3.064730
v -2.100000 -0.000041 -3.064730
v -1.499102 12.011119 -0.654115
v -1.600000 -0.000041 -1.064407
v 1.600000 12.627670 -0.631924
v -1.600000 12.627670 -0.631924
v 1.500275 0.521475 -1.055423
v -1.499274 0.522508 -1.055166
v -1.600000 -0.000041 -0.468084
v -1.640000 -0.000041 -0.428084
v -1.601958 -0.000041 -0.455723
v -1.607639 -0.000041 -0.444572
v -1.616489 -0.000041 -0.435723
v -1.627639 -0.000041 -0.430041
v -1.640000 12.677671 -0.428084
v -1.600000 12.637671 -0.428084
v -1.632000 12.669671 -0.428084
v -1.624000 12.661671 -0.428084
v -1.616000 12.653671 -0.428084
v -1.608000 12.645671 -0.428084
v 1.600000 12.637671 -0.428083
v 1.640000 12.677671 -0.428083
v 1.601958 12.639628 -0.428083
v 1.607639 12.645309 -0.428083
v 1.616489 12.654160 -0.428083
v 1.627639 12.665310 -0.428083
v 1.640000 -0.000041 -0.428084
v 1.600000 -0.000041 -0.468084
v 1.627639 -0.000041 -0.430041
v 1.616489 -0.000041 -0.435723
v 1.607639 -0.000041 -0.444572
v 1.601958 -0.000041 -0.455723
v -2.084905 -0.000041 -0.428084
v -2.100000 -0.000041 -0.443179
v -2.089570 -0.000041 -0.428823
v -2.093778 -0.000041 -0.430967
v -2.097117 -0.000041 -0.434306
v -2.099262 -0.000041 -0.438514
v -2.100000 12.677671 -0.443179
v -2.084905 12.677671 -0.428084
v -2.084905 12.677671 -0.428084
v -2.099262 12.677671 -0.438514
v -2.097117 12.677671 -0.434306
v -2.093778 12.677671 -0.430967
v -2.089570 12.677671 -0.428823
v 2.084905 12.677671 -0.428084
v 2.100000 12.677671 -0.443179
v 2.084905 12.677671 -0.428084
v 2.089570 12.677671 -0.428823
v 2.093778 12.677671 -0.430967
v 2.097117 12.677671 -0.434306
v 2.099262 12.677671 -0.438514
v 2.100000 -0.000041 -0.443179
v 2.084905 -0.000041 -0.428084
v 2.099262 -0.000041 -0.438514
v 2.097117 -0.000041 -0.434306
v 2.093778 -0.000041 -0.430967
v 2.089570 -0.000041 -0.428823
vt 0.375000 0.500000
vt 0.625000 0.500000
vt 0.625000 0.748742
vt 0.375000 0.748742
vt 0.388490 0.986510
vt 0.611510 0.986510
vt 0.624557 0.999557
vt 0.375443 0.999557
vt 0.611510 0.763490
vt 0.388490 0.763490
vt 0.375443 0.750443
vt 0.624557 0.750443
vt 0.375000 0.250000
vt 0.625000 0.250000
vt 0.595675 0.970675
vt 0.595675 0.779325
vt 0.598607 0.776393
vt 0.598912 0.775503
vt 0.599317 0.772425
vt 0.601975 0.760040
vt 0.580895 0.735311
vt 0.624557 0.750443
vt 0.625000 0.999101
vt 0.625000 0.999101
vt 0.625000 0.972619
vt 0.550943 1.046714
vt 0.592114 1.002148
vt 0.597606 0.984481
vt 0.599313 0.977801
vt 0.598607 0.973607
vt 0.875000 0.500000
vt 0.875000 0.748742
vt 0.874101 0.750000
vt 0.625899 0.750000
vt 0.594524 0.783626
vt 0.405476 0.783626
vt 0.404326 0.779326
vt 0.594524 0.966374
vt 0.405476 0.966374
vt 0.404326 0.970675
vt 0.388852 0.986148
vt 0.389179 0.985821
vt 0.390222 0.984778
vt 0.390600 0.984400
vt 0.391019 0.983981
vt 0.388852 0.763852
vt 0.389179 0.764179
vt 0.390222 0.765222
vt 0.390600 0.765600
vt 0.391019 0.766019
vt 0.625000 1.000000
vt 0.624978 0.999978
vt 0.624557 0.999557
vt 0.624915 0.999915
vt 0.624818 0.999818
vt 0.624694 0.999694
vt 0.624694 0.750306
vt 0.624818 0.750183
vt 0.624915 0.750085
vt 0.624978 0.750022
vt 0.625000 0.750000
vt 0.375306 0.750306
vt 0.375182 0.750182
vt 0.375000 0.749481
vt 0.625000 0.749481
vt 0.375000 0.749131
vt 0.625000 0.749131
vt 0.375306 0.999694
vt 0.625000 1.000000
vt 0.375000 1.000000
vt 0.375000 0.000000
vt 0.625000 0.000000
vt 0.625000 0.000519
vt 0.375000 0.000519
vt 0.625000 0.000869
vt 0.375000 0.000869
vt 0.625000 0.001258
vt 0.375000 0.001258
vn 1.0000 0.0000 0.0000
vn 0.9969 0.0000 0.0784
vn 0.0479 -0.0000 0.9989
vn 0.0319 -0.0000 0.9995
vn -0.0523 0.0000 0.9986
vn -0.0785 0.0000 0.9969
vn -0.0263 -0.0000 0.9997
vn -0.0395 -0.0000 0.9992
vn 0.0785 -0.0000 0.9969
vn 0.0523 -0.0000 0.9986
vn 0.0000 0.0000 -1.0000
vn -0.0000 -0.9707 0.2405
vn 0.0000 1.0000 0.0000
vn 0.0000 1.0000 0.0001
vn -0.0304 -0.0350 0.9989
vn -0.0301 -0.0282 0.9992
vn -0.0058 -0.0195 0.9998
vn -0.0050 -0.0356 0.9994
vn 0.0304 -0.0350 0.9989
vn 0.0049 -0.0356 0.9994
vn 0.0301 -0.0281 0.9992
vn 0.0059 -0.0195 0.9998
vn 0.1909 -0.0001 0.9816
vn 0.1433 -0.0001 0.9897
vn 0.3764 -0.0004 0.9265
vn 0.3306 -0.0003 0.9438
vn 0.5509 -0.0008 0.8346
vn 0.5083 -0.0007 0.8612
vn 0.7088 -0.0013 0.7054
vn 0.6708 -0.0011 0.7416
vn 0.7783 -0.0015 0.6279
vn -0.1212 -0.0002 0.9926
vn -0.1634 -0.0002 0.9866
vn -0.2980 -0.0005 0.9546
vn -0.3488 -0.0006 0.9372
vn -0.5149 -0.0010 0.8573
vn -0.5806 -0.0011 0.8142
vn -0.7807 -0.0012 0.6249
vn -0.8521 -0.0011 0.5233
vn -0.9826 -0.0005 0.1858
vn -0.9883 -0.0004 0.1525
vn -1.0000 -0.0000 0.0000
vn 0.0000 1.0000 -0.0001
vn 0.0000 1.0000 -0.0006
vn 0.0000 1.0000 0.0008
vn 0.0000 1.0000 0.0011
vn -0.3090 0.0000 0.9511
vn 0.0000 0.0000 1.0000
vn 0.3090 0.0000 0.9511
vn 0.0000 1.0000 0.0022
vn 0.0000 1.0000 -0.0007
vn 0.5878 0.0000 0.8090
vn 0.8090 0.0000 0.5878
vn 0.9511 0.0000 0.3090
vn -0.5878 0.0000 0.8090
vn -0.8090 0.0000 0.5878
vn -0.9511 0.0000 0.3090
vn -0.9969 0.0000 0.0784
vn 0.0000 -1.0000 -0.0000
usemtl Gray_01
s 1
f 2/1/1 1/2/1 51/3/2 57/4/2
f 14/5/3 19/6/4 44/7/5 37/8/6
f 26/9/7 31/10/8 58/11/9 50/12/10
f 6/13/11 5/14/11 1/2/11 2/1/11
f 10/15/12 9/16/12 25/17/12 27/18/12 28/19/12 29/20/12 30/21/12 26/9/12 50/12/12 52/22/12 45/23/12 44/24/12 19/25/12 21/26/12 22/27/12 23/28/12 24/29/12 20/30/12
f 1/2/13 5/31/13 43/32/13 45/33/14 52/34/14 51/3/13
f 3/35/15 11/36/16 4/37/17 9/16/18
f 7/38/19 3/35/15 9/16/18 10/15/20
f 11/36/16 12/39/21 8/40/22 4/37/17
f 12/39/21 7/38/19 10/15/20 8/40/22
f 19/6/4 14/5/3 18/41/23 21/26/24
f 21/26/24 18/41/23 17/42/25 22/27/26
f 22/27/26 17/42/25 16/43/27 23/28/28
f 23/28/28 16/43/27 15/44/29 24/29/30
f 24/29/30 15/44/29 13/45/31 20/30/31
f 8/40/1 10/15/1 20/30/1 13/45/1
f 31/10/8 26/9/7 30/21/32 33/46/33
f 33/46/33 30/21/32 29/20/34 34/47/35
f 34/47/35 29/20/34 28/19/36 35/48/37
f 35/48/37 28/19/36 27/18/38 36/49/39
f 36/49/39 27/18/38 25/17/40 32/50/41
f 9/16/42 4/37/42 32/50/41 25/17/40
f 43/51/13 46/52/43 45/53/14
f 46/52/43 47/54/44 45/53/14
f 47/54/44 48/55/45 45/53/14
f 48/55/45 49/56/46 45/53/14
f 49/56/47 44/7/5 45/53/48
f 50/12/10 53/57/49 52/22/48
f 53/57/50 54/58/14 52/22/14
f 54/58/14 55/59/51 52/22/14
f 55/59/51 56/60/43 52/22/14
f 56/60/43 51/61/13 52/22/14
f 50/12/10 58/11/9 62/62/49 53/57/49
f 53/57/49 62/62/49 61/63/52 54/58/52
f 54/58/52 61/63/52 60/64/53 55/65/53
f 55/65/53 60/64/53 59/66/54 56/67/54
f 56/67/54 59/66/54 57/4/2 51/3/2
f 37/8/6 44/7/5 49/56/47 39/68/47
f 39/68/47 49/56/47 48/69/55 40/70/55
f 40/71/55 48/72/55 47/73/56 41/74/56
f 41/74/56 47/73/56 46/75/57 42/76/57
f 42/76/57 46/75/57 43/77/58 38/78/58
f 38/78/58 43/77/58 5/14/42 6/13/42
f 2/1/59 57/4/59 59/66/59 60/64/59 61/63/59 62/62/59 58/11/59 31/10/59 33/46/59 34/47/59 35/48/59 36/49/59 32/50/59 4/37/59 8/40/59 13/45/59 15/44/59 16/43/59 17/42/59 18/41/59 14/5/59 37/8/59 39/68/59 40/70/59 41/74/59 42/76/59 38/78/59 6/13/59
